# xmcd
#
# Track frame offsets: 
#        150
#        16872
#        34480
#        52137
#        69115
#        88570
#        101535
#        123197
#        146010
#        159815
#
# Disc length: 2325 seconds
#
# Revision: 4
# Processed by: cddbd v1.5.2PL0 Copyright (c) Steve Scherf et al.
# Submitted via: ExactAudioCopy v0.95b3
#
DISCID=7909130a
DTITLE=Sumo - Divididos Por La Felicidad [1991]
DYEAR=1985
DGENRE=Latin
TTITLE0=La Rubia Tarada
TTITLE1=Mula Plateada
TTITLE2=No Acabes
TTITLE3=Regtest
TTITLE4=El Reggae De Paz Y Amor
TTITLE5=Debede
TTITLE6=Mejor No Hablar De Ciertas Cosas
TTITLE7=Divididos Por La Felicidad
TTITLE8=No Duermas Más
TTITLE9=Kaya
EXTD=
EXTT0=
EXTT1=
EXTT2=
EXTT3=
EXTT4=
EXTT5=
EXTT6=
EXTT7=
EXTT8=
EXTT9=
PLAYORDER=
